<svg width="133" height="167" viewBox="0 0 133 167" fill="none" xmlns="http://www.w3.org/2000/svg">
<path d="M112.25 25.0455H17.75C9.05152 25.0455 2 31.7612 2 40.0455V150.045C2 158.33 9.05152 165.045 17.75 165.045H112.25C120.948 165.045 128 158.33 128 150.045V40.0455C128 31.7612 120.948 25.0455 112.25 25.0455Z" fill="white" stroke="#C4C6FF" stroke-width="3"/>
<path d="M18 53.0455C22.4183 53.0455 26 49.4637 26 45.0455C26 40.6272 22.4183 37.0455 18 37.0455C13.5817 37.0455 10 40.6272 10 45.0455C10 49.4637 13.5817 53.0455 18 53.0455Z" fill="#1E72EC"/>
<path d="M18 83.0455C22.4183 83.0455 26 79.4637 26 75.0455C26 70.6272 22.4183 67.0455 18 67.0455C13.5817 67.0455 10 70.6272 10 75.0455C10 79.4637 13.5817 83.0455 18 83.0455Z" fill="#1E72EC"/>
<path d="M18 113.045C22.4183 113.045 26 109.464 26 105.045C26 100.627 22.4183 97.0455 18 97.0455C13.5817 97.0455 10 100.627 10 105.045C10 109.464 13.5817 113.045 18 113.045Z" fill="#1E72EC"/>
<path d="M18 143.045C22.4183 143.045 26 139.464 26 135.045C26 130.627 22.4183 127.045 18 127.045C13.5817 127.045 10 130.627 10 135.045C10 139.464 13.5817 143.045 18 143.045Z" fill="#1E72EC"/>
<path d="M103 45.0455H63C60.2386 45.0455 58 47.284 58 50.0455V65.0455C58 67.8069 60.2386 70.0455 63 70.0455H103C105.761 70.0455 108 67.8069 108 65.0455V50.0455C108 47.284 105.761 45.0455 103 45.0455Z" fill="#4A90E2"/>
<path d="M68 58.0455C69.6569 58.0455 71 56.7023 71 55.0455C71 53.3886 69.6569 52.0455 68 52.0455C66.3431 52.0455 65 53.3886 65 55.0455C65 56.7023 66.3431 58.0455 68 58.0455Z" fill="white"/>
<path d="M75 55.0455H98" stroke="white" stroke-width="2"/>
<path d="M48 93.0455C52.4183 93.0455 56 89.4637 56 85.0455C56 80.6272 52.4183 77.0455 48 77.0455C43.5817 77.0455 40 80.6272 40 85.0455C40 89.4637 43.5817 93.0455 48 93.0455Z" fill="#333333"/>
<path d="M88 93.0455C92.4183 93.0455 96 89.4637 96 85.0455C96 80.6272 92.4183 77.0455 88 77.0455C83.5817 77.0455 80 80.6272 80 85.0455C80 89.4637 83.5817 93.0455 88 93.0455Z" fill="#333333"/>
<path d="M53 115.045H83" stroke="#333333" stroke-width="3" stroke-linecap="round"/>
<path d="M130 55.0455H126C124.343 55.0455 123 56.3886 123 58.0455V77.0455C123 78.7023 124.343 80.0455 126 80.0455H130C131.657 80.0455 133 78.7023 133 77.0455V58.0455C133 56.3886 131.657 55.0455 130 55.0455Z" fill="#4A90E2"/>
<path d="M130 85.0455H126C124.343 85.0455 123 86.3886 123 88.0455V107.045C123 108.702 124.343 110.045 126 110.045H130C131.657 110.045 133 108.702 133 107.045V88.0455C133 86.3886 131.657 85.0455 130 85.0455Z" fill="#4A90E2"/>
<path d="M130 115.045H126C124.343 115.045 123 116.389 123 118.045V137.045C123 138.702 124.343 140.045 126 140.045H130C131.657 140.045 133 138.702 133 137.045V118.045C133 116.389 131.657 115.045 130 115.045Z" fill="#4A90E2"/>
<path d="M68 5.04547V25.0455" stroke="#4A90E2" stroke-width="3"/>
<path d="M68 10.0455C70.7614 10.0455 73 7.8069 73 5.04547C73 2.28405 70.7614 0.0454712 68 0.0454712C65.2386 0.0454712 63 2.28405 63 5.04547C63 7.8069 65.2386 10.0455 68 10.0455Z" fill="#4A90E2"/>
<path d="M48 131.045H108" stroke="#333333" stroke-width="2"/>
<path d="M48 140.045H108" stroke="#333333" stroke-width="2"/>
</svg>
