<svg width="161" height="40" viewBox="0 0 161 40" fill="none" xmlns="http://www.w3.org/2000/svg">
<path d="M2 12C0.89544 12 0 12.8954 0 14V30C0 35.5228 4.47716 40 10 40H30C35.5228 40 40 35.5228 40 30V14C40 12.8954 39.1046 12 38 12H2Z" fill="white"/>
<path d="M10 0C11.1046 0 12 0.89544 12 2V4H28V2C28 0.89544 28.8954 0 30 0C31.1046 0 32 0.89544 32 2V4.20004C36.5644 5.12658 40 9.16208 40 14C40 15.1046 39.1046 16 38 16H2C0.89544 16 0 15.1046 0 14C0 9.16208 3.43552 5.12658 8 4.20004V2C8 0.89544 8.89544 0 10 0Z" fill="#114185"/>
<path fill-rule="evenodd" clip-rule="evenodd" d="M10 22C10 20.8954 10.8954 20 12 20H28C29.1046 20 30 20.8954 30 22C30 23.1046 29.1046 24 28 24H12C10.8954 24 10 23.1046 10 22Z" fill="#114185"/>
<path fill-rule="evenodd" clip-rule="evenodd" d="M10 30C10 28.8954 10.8954 28 12 28H20C21.1046 28 22 28.8954 22 30C22 31.1046 21.1046 32 20 32H12C10.8954 32 10 31.1046 10 30Z" fill="#114185"/>
<path d="M57.548 27V14.436H65.594V16.236H59.582V19.728H65.036V21.528H59.582V25.2H65.594V27H57.548ZM70.1079 27L66.9219 17.64H68.8659L70.2879 21.906L71.2419 25.182H71.3499L72.3039 21.906L73.7619 17.64H75.6339L72.4119 27H70.1079ZM80.8162 27.216C80.1442 27.216 79.5442 27.102 79.0162 26.874C78.4882 26.646 78.0382 26.322 77.6662 25.902C77.2942 25.47 77.0062 24.954 76.8022 24.354C76.6102 23.742 76.5142 23.064 76.5142 22.32C76.5142 21.576 76.6102 20.904 76.8022 20.304C77.0062 19.692 77.2942 19.176 77.6662 18.756C78.0382 18.324 78.4882 17.994 79.0162 17.766C79.5442 17.538 80.1442 17.424 80.8162 17.424C81.5002 17.424 82.1002 17.544 82.6162 17.784C83.1442 18.024 83.5822 18.36 83.9302 18.792C84.2782 19.212 84.5362 19.704 84.7042 20.268C84.8842 20.832 84.9742 21.438 84.9742 22.086V22.824H78.5482V23.13C78.5482 23.85 78.7582 24.444 79.1782 24.912C79.6102 25.368 80.2222 25.596 81.0142 25.596C81.5902 25.596 82.0762 25.47 82.4722 25.218C82.8682 24.966 83.2042 24.624 83.4802 24.192L84.6322 25.326C84.2842 25.902 83.7802 26.364 83.1202 26.712C82.4602 27.048 81.6922 27.216 80.8162 27.216ZM80.8162 18.954C80.4802 18.954 80.1682 19.014 79.8802 19.134C79.6042 19.254 79.3642 19.422 79.1602 19.638C78.9682 19.854 78.8182 20.112 78.7102 20.412C78.6022 20.712 78.5482 21.042 78.5482 21.402V21.528H82.9042V21.348C82.9042 20.628 82.7182 20.052 82.3462 19.62C81.9742 19.176 81.4642 18.954 80.8162 18.954ZM87.1462 27V17.64H89.1082V19.188H89.1982C89.4022 18.684 89.7082 18.264 90.1162 17.928C90.5362 17.592 91.1062 17.424 91.8262 17.424C92.7862 17.424 93.5302 17.742 94.0582 18.378C94.5982 19.002 94.8682 19.896 94.8682 21.06V27H92.9062V21.312C92.9062 19.848 92.3182 19.116 91.1422 19.116C90.8902 19.116 90.6382 19.152 90.3862 19.224C90.1462 19.284 89.9302 19.38 89.7382 19.512C89.5462 19.644 89.3902 19.812 89.2702 20.016C89.1622 20.22 89.1082 20.46 89.1082 20.736V27H87.1462ZM100.18 27C99.4956 27 98.9796 26.826 98.6316 26.478C98.2836 26.118 98.1096 25.614 98.1096 24.966V19.242H96.6516V17.64H97.4436C97.7676 17.64 97.9896 17.568 98.1096 17.424C98.2416 17.28 98.3076 17.046 98.3076 16.722V15.084H100.072V17.64H102.034V19.242H100.072V25.398H101.89V27H100.18ZM107.764 27.216C107.116 27.216 106.522 27.102 105.982 26.874C105.454 26.646 105.004 26.322 104.632 25.902C104.26 25.47 103.972 24.954 103.768 24.354C103.564 23.742 103.462 23.064 103.462 22.32C103.462 21.576 103.564 20.904 103.768 20.304C103.972 19.692 104.26 19.176 104.632 18.756C105.004 18.324 105.454 17.994 105.982 17.766C106.522 17.538 107.116 17.424 107.764 17.424C108.412 17.424 109 17.538 109.528 17.766C110.068 17.994 110.524 18.324 110.896 18.756C111.268 19.176 111.556 19.692 111.76 20.304C111.964 20.904 112.066 21.576 112.066 22.32C112.066 23.064 111.964 23.742 111.76 24.354C111.556 24.954 111.268 25.47 110.896 25.902C110.524 26.322 110.068 26.646 109.528 26.874C109 27.102 108.412 27.216 107.764 27.216ZM107.764 25.596C108.436 25.596 108.976 25.392 109.384 24.984C109.792 24.564 109.996 23.94 109.996 23.112V21.528C109.996 20.7 109.792 20.082 109.384 19.674C108.976 19.254 108.436 19.044 107.764 19.044C107.092 19.044 106.552 19.254 106.144 19.674C105.736 20.082 105.532 20.7 105.532 21.528V23.112C105.532 23.94 105.736 24.564 106.144 24.984C106.552 25.392 107.092 25.596 107.764 25.596ZM117.222 27.216C116.334 27.216 115.59 27.06 114.99 26.748C114.39 26.436 113.868 26.004 113.424 25.452L114.684 24.3C115.032 24.72 115.416 25.05 115.836 25.29C116.268 25.518 116.766 25.632 117.33 25.632C117.906 25.632 118.332 25.524 118.608 25.308C118.896 25.08 119.04 24.768 119.04 24.372C119.04 24.072 118.938 23.82 118.734 23.616C118.542 23.4 118.2 23.262 117.708 23.202L116.844 23.094C115.884 22.974 115.128 22.698 114.576 22.266C114.036 21.822 113.766 21.168 113.766 20.304C113.766 19.848 113.85 19.446 114.018 19.098C114.186 18.738 114.42 18.438 114.72 18.198C115.032 17.946 115.398 17.754 115.818 17.622C116.25 17.49 116.724 17.424 117.24 17.424C118.08 17.424 118.764 17.556 119.292 17.82C119.832 18.084 120.312 18.45 120.732 18.918L119.526 20.07C119.286 19.782 118.968 19.536 118.572 19.332C118.188 19.116 117.744 19.008 117.24 19.008C116.7 19.008 116.298 19.116 116.034 19.332C115.782 19.548 115.656 19.83 115.656 20.178C115.656 20.538 115.77 20.808 115.998 20.988C116.226 21.168 116.592 21.3 117.096 21.384L117.96 21.492C118.992 21.648 119.742 21.954 120.21 22.41C120.69 22.854 120.93 23.454 120.93 24.21C120.93 24.666 120.84 25.08 120.66 25.452C120.492 25.812 120.246 26.124 119.922 26.388C119.598 26.652 119.208 26.856 118.752 27C118.296 27.144 117.786 27.216 117.222 27.216Z" fill="white"/>
<path d="M135.856 27.488V22.904H131.608V20.432H135.856V15.824H138.544V20.432H142.792V22.904H138.544V27.488H135.856Z" fill="#F0F7FB"/>
</svg>
