<svg width="235" height="242" viewBox="0 0 235 242" fill="none" xmlns="http://www.w3.org/2000/svg">
<path d="M162.685 25H68.1848C59.4863 25 52.4348 31.7157 52.4348 40V150C52.4348 158.284 59.4863 165 68.1848 165H162.685C171.383 165 178.435 158.284 178.435 150V40C178.435 31.7157 171.383 25 162.685 25Z" fill="white" stroke="#C4C6FF" stroke-width="3"/>
<path d="M68.4348 53C72.8531 53 76.4348 49.4183 76.4348 45C76.4348 40.5817 72.8531 37 68.4348 37C64.0165 37 60.4348 40.5817 60.4348 45C60.4348 49.4183 64.0165 53 68.4348 53Z" fill="#1E72EC"/>
<path d="M68.4348 83C72.8531 83 76.4348 79.4183 76.4348 75C76.4348 70.5817 72.8531 67 68.4348 67C64.0165 67 60.4348 70.5817 60.4348 75C60.4348 79.4183 64.0165 83 68.4348 83Z" fill="#1E72EC"/>
<path d="M68.4348 113C72.8531 113 76.4348 109.418 76.4348 105C76.4348 100.582 72.8531 97 68.4348 97C64.0165 97 60.4348 100.582 60.4348 105C60.4348 109.418 64.0165 113 68.4348 113Z" fill="#1E72EC"/>
<path d="M68.4348 143C72.8531 143 76.4348 139.418 76.4348 135C76.4348 130.582 72.8531 127 68.4348 127C64.0165 127 60.4348 130.582 60.4348 135C60.4348 139.418 64.0165 143 68.4348 143Z" fill="#1E72EC"/>
<path d="M153.435 45H113.435C110.673 45 108.435 47.2386 108.435 50V65C108.435 67.7614 110.673 70 113.435 70H153.435C156.196 70 158.435 67.7614 158.435 65V50C158.435 47.2386 156.196 45 153.435 45Z" fill="#4A90E2"/>
<path d="M118.435 58C120.092 58 121.435 56.6569 121.435 55C121.435 53.3431 120.092 52 118.435 52C116.778 52 115.435 53.3431 115.435 55C115.435 56.6569 116.778 58 118.435 58Z" fill="white"/>
<path d="M125.435 55H148.435" stroke="white" stroke-width="2"/>
<path d="M98.4348 93C102.853 93 106.435 89.4183 106.435 85C106.435 80.5817 102.853 77 98.4348 77C94.0165 77 90.4348 80.5817 90.4348 85C90.4348 89.4183 94.0165 93 98.4348 93Z" fill="#333333"/>
<path d="M138.435 93C142.853 93 146.435 89.4183 146.435 85C146.435 80.5817 142.853 77 138.435 77C134.017 77 130.435 80.5817 130.435 85C130.435 89.4183 134.017 93 138.435 93Z" fill="#333333"/>
<path d="M103.435 115H133.435" stroke="#333333" stroke-width="3" stroke-linecap="round"/>
<path d="M180.435 55H176.435C174.778 55 173.435 56.3431 173.435 58V77C173.435 78.6569 174.778 80 176.435 80H180.435C182.092 80 183.435 78.6569 183.435 77V58C183.435 56.3431 182.092 55 180.435 55Z" fill="#4A90E2"/>
<path d="M180.435 85H176.435C174.778 85 173.435 86.3431 173.435 88V107C173.435 108.657 174.778 110 176.435 110H180.435C182.092 110 183.435 108.657 183.435 107V88C183.435 86.3431 182.092 85 180.435 85Z" fill="#4A90E2"/>
<path d="M180.435 115H176.435C174.778 115 173.435 116.343 173.435 118V137C173.435 138.657 174.778 140 176.435 140H180.435C182.092 140 183.435 138.657 183.435 137V118C183.435 116.343 182.092 115 180.435 115Z" fill="#4A90E2"/>
<path d="M118.435 5V25" stroke="#4A90E2" stroke-width="3"/>
<path d="M118.435 10C121.196 10 123.435 7.76142 123.435 5C123.435 2.23858 121.196 0 118.435 0C115.673 0 113.435 2.23858 113.435 5C113.435 7.76142 115.673 10 118.435 10Z" fill="#4A90E2"/>
<path d="M98.4348 131H158.435" stroke="#333333" stroke-width="2"/>
<path d="M98.4348 140H158.435" stroke="#333333" stroke-width="2"/>
<path d="M38.8419 238.084V212.956H55.4019V217.168H43.5939V223.252H54.0339V227.464H43.5939V233.872H55.4019V238.084H38.8419ZM64.1718 238.084L57.9078 219.292H62.4438L65.0718 227.392L66.9078 234.088H67.1598L68.9958 227.392L71.5518 219.292H75.9438L69.6438 238.084H64.1718ZM86.3335 238.516C84.9415 238.516 83.6935 238.288 82.5895 237.832C81.5095 237.352 80.5855 236.692 79.8175 235.852C79.0735 234.988 78.4975 233.956 78.0895 232.756C77.6815 231.532 77.4775 230.164 77.4775 228.652C77.4775 227.164 77.6695 225.82 78.0535 224.62C78.4615 223.42 79.0375 222.4 79.7815 221.56C80.5255 220.696 81.4375 220.036 82.5175 219.58C83.5975 219.1 84.8215 218.86 86.1895 218.86C87.6535 218.86 88.9255 219.112 90.0055 219.616C91.0855 220.12 91.9735 220.804 92.6695 221.668C93.3655 222.532 93.8815 223.54 94.2175 224.692C94.5775 225.82 94.7575 227.032 94.7575 228.328V229.84H82.2655V230.308C82.2655 231.676 82.6495 232.78 83.4175 233.62C84.1855 234.436 85.3255 234.844 86.8375 234.844C87.9895 234.844 88.9255 234.604 89.6455 234.124C90.3895 233.644 91.0495 233.032 91.6255 232.288L94.1095 235.06C93.3415 236.14 92.2855 236.992 90.9415 237.616C89.6215 238.216 88.0855 238.516 86.3335 238.516ZM86.2615 222.316C85.0375 222.316 84.0655 222.724 83.3455 223.54C82.6255 224.356 82.2655 225.412 82.2655 226.708V226.996H89.9695V226.672C89.9695 225.376 89.6455 224.332 88.9975 223.54C88.3735 222.724 87.4615 222.316 86.2615 222.316ZM98.8117 238.084V219.292H103.42V222.424H103.6C103.984 221.416 104.584 220.576 105.4 219.904C106.24 219.208 107.392 218.86 108.856 218.86C110.8 218.86 112.288 219.496 113.32 220.768C114.352 222.04 114.868 223.852 114.868 226.204V238.084H110.26V226.672C110.26 225.328 110.02 224.32 109.54 223.648C109.06 222.976 108.268 222.64 107.164 222.64C106.684 222.64 106.216 222.712 105.76 222.856C105.328 222.976 104.932 223.168 104.572 223.432C104.236 223.672 103.96 223.984 103.744 224.368C103.528 224.728 103.42 225.16 103.42 225.664V238.084H98.8117ZM125.844 238.084C124.26 238.084 123.048 237.676 122.208 236.86C121.392 236.02 120.984 234.832 120.984 233.296V222.964H118.212V219.292H119.652C120.348 219.292 120.816 219.136 121.056 218.824C121.32 218.488 121.452 217.996 121.452 217.348V214.144H125.592V219.292H129.444V222.964H125.592V234.412H129.156V238.084H125.844ZM140.752 238.516C139.408 238.516 138.196 238.288 137.116 237.832C136.06 237.376 135.148 236.716 134.38 235.852C133.636 234.988 133.06 233.956 132.652 232.756C132.244 231.532 132.04 230.164 132.04 228.652C132.04 227.14 132.244 225.784 132.652 224.584C133.06 223.384 133.636 222.364 134.38 221.524C135.148 220.66 136.06 220 137.116 219.544C138.196 219.088 139.408 218.86 140.752 218.86C142.096 218.86 143.308 219.088 144.388 219.544C145.468 220 146.38 220.66 147.124 221.524C147.892 222.364 148.48 223.384 148.888 224.584C149.296 225.784 149.5 227.14 149.5 228.652C149.5 230.164 149.296 231.532 148.888 232.756C148.48 233.956 147.892 234.988 147.124 235.852C146.38 236.716 145.468 237.376 144.388 237.832C143.308 238.288 142.096 238.516 140.752 238.516ZM140.752 234.808C141.976 234.808 142.936 234.436 143.632 233.692C144.328 232.948 144.676 231.856 144.676 230.416V226.924C144.676 225.508 144.328 224.428 143.632 223.684C142.936 222.94 141.976 222.568 140.752 222.568C139.552 222.568 138.604 222.94 137.908 223.684C137.212 224.428 136.864 225.508 136.864 226.924V230.416C136.864 231.856 137.212 232.948 137.908 233.692C138.604 234.436 139.552 234.808 140.752 234.808ZM159.741 238.516C157.941 238.516 156.429 238.216 155.205 237.616C153.981 236.992 152.901 236.14 151.965 235.06L154.773 232.324C155.469 233.116 156.225 233.74 157.041 234.196C157.881 234.652 158.841 234.88 159.921 234.88C161.025 234.88 161.817 234.688 162.297 234.304C162.801 233.92 163.053 233.392 163.053 232.72C163.053 232.168 162.873 231.736 162.513 231.424C162.177 231.088 161.589 230.86 160.749 230.74L158.877 230.488C156.837 230.224 155.277 229.648 154.197 228.76C153.141 227.848 152.613 226.528 152.613 224.8C152.613 223.888 152.781 223.072 153.117 222.352C153.453 221.608 153.933 220.984 154.557 220.48C155.181 219.952 155.925 219.556 156.789 219.292C157.677 219.004 158.661 218.86 159.741 218.86C160.653 218.86 161.457 218.932 162.153 219.076C162.873 219.196 163.521 219.388 164.097 219.652C164.673 219.892 165.201 220.204 165.681 220.588C166.161 220.948 166.629 221.356 167.085 221.812L164.385 224.512C163.833 223.936 163.173 223.456 162.405 223.072C161.637 222.688 160.797 222.496 159.885 222.496C158.877 222.496 158.145 222.676 157.689 223.036C157.257 223.396 157.041 223.864 157.041 224.44C157.041 225.064 157.221 225.544 157.581 225.88C157.965 226.192 158.601 226.42 159.489 226.564L161.397 226.816C165.453 227.392 167.481 229.24 167.481 232.36C167.481 233.272 167.289 234.112 166.905 234.88C166.545 235.624 166.029 236.272 165.357 236.824C164.685 237.352 163.869 237.772 162.909 238.084C161.973 238.372 160.917 238.516 159.741 238.516ZM186.178 235.816V228.94H179.806V225.232H186.178V218.32H190.21V225.232H196.582V228.94H190.21V235.816H186.178Z" fill="#1E72EC"/>
</svg>
